<svg width="15" height="13" viewBox="0 0 15 13" fill="none" xmlns="http://www.w3.org/2000/svg">
<path d="M5 0.5C3.90278 0.5 3.04369 0.745113 2.46582 1.38522C1.88795 2.02532 1.66667 2.97692 1.66667 4.19231C1.66667 5.33754 0.902448 6.03846 0 6.03846V6.96154C0.902448 6.96154 1.66667 7.66246 1.66667 8.80769C1.66667 10.0231 1.88795 10.9747 2.46582 11.6148C3.04369 12.2549 3.90278 12.5 5 12.5V11.5769C4.01389 11.5769 3.41464 11.3605 3.05501 10.9621C2.69538 10.5638 2.5 9.9 2.5 8.80769C2.5 7.66698 1.84233 6.93732 1.03841 6.5C1.84233 6.06268 2.5 5.33302 2.5 4.19231C2.5 3.1 2.69538 2.43622 3.05501 2.03786C3.41464 1.6395 4.01389 1.42308 5 1.42308V0.5Z" fill="#B9E01E"/>
<path d="M10 12.5C11.0972 12.5 11.9563 12.2549 12.5342 11.6148C13.1121 10.9747 13.3333 10.0231 13.3333 8.80769C13.3333 7.66246 14.0976 6.96154 15 6.96154V6.03846C14.0976 6.03846 13.3333 5.33754 13.3333 4.19231C13.3333 2.97692 13.1121 2.02532 12.5342 1.38522C11.9563 0.745114 11.0972 0.5 10 0.5V1.42308C10.9861 1.42308 11.5854 1.6395 11.945 2.03786C12.3046 2.43622 12.5 3.1 12.5 4.19231C12.5 5.33302 13.1577 6.06268 13.9616 6.5C13.1577 6.93732 12.5 7.66698 12.5 8.80769C12.5 9.9 12.3046 10.5638 11.945 10.9621C11.5854 11.3605 10.9861 11.5769 10 11.5769V12.5Z" fill="#B9E01E"/>
</svg>
