<svg width="50" height="49" viewBox="0 0 50 49" fill="none" xmlns="http://www.w3.org/2000/svg">
<path d="M4 10.1001C1.80078 10.1001 0 11.8288 0 13.9401V36.9801C0 39.0913 1.80078 40.8201 4 40.8201H46C48.1992 40.8201 50 39.0913 50 36.9801V13.9401C50 11.8288 48.1992 10.1001 46 10.1001H4ZM4 12.0201H46C47.1172 12.0201 48 12.8676 48 13.9401V36.9801C48 38.0526 47.1172 38.9001 46 38.9001H4C2.88281 38.9001 2 38.0526 2 36.9801V13.9401C2 12.8676 2.88281 12.0201 4 12.0201ZM8 17.7801V33.1401H12V22.9101L17 29.3001L22 22.9101V33.1401H26V17.7801H22L17 24.2301L12 17.7801H8ZM35 17.7801V25.4601H30L37 33.1401L44 25.4601H39V17.7801H35Z" fill="#FA541C"/>
</svg>
