<svg width="129" height="129" viewBox="0 0 129 129" fill="none" xmlns="http://www.w3.org/2000/svg">
<g opacity="0.1">
<path opacity="0.1" d="M128.25 125.12V128.12H125.25" stroke="#71717E" stroke-miterlimit="10"/>
<path opacity="0.1" d="M119.48 128.12H7.00977" stroke="#71717E" stroke-miterlimit="10" stroke-dasharray="5.77 5.77"/>
<path opacity="0.1" d="M4.12988 128.12H1.12988V125.12" stroke="#71717E" stroke-miterlimit="10"/>
<path opacity="0.1" d="M1.12988 119.36V6.87988" stroke="#71717E" stroke-miterlimit="10" stroke-dasharray="5.77 5.77"/>
<path opacity="0.1" d="M1.12988 4V1H4.12988" stroke="#71717E" stroke-miterlimit="10"/>
<path opacity="0.1" d="M9.88989 1H122.37" stroke="#71717E" stroke-miterlimit="10" stroke-dasharray="5.77 5.77"/>
<path opacity="0.1" d="M125.25 1H128.25V4" stroke="#71717E" stroke-miterlimit="10"/>
<path opacity="0.1" d="M128.25 9.77002V122.24" stroke="#71717E" stroke-miterlimit="10" stroke-dasharray="5.77 5.77"/>
</g>
<path d="M82.8007 44.0528C78.885 40.1365 73.8959 37.4693 68.4643 36.3885C63.0327 35.3077 57.4026 35.8619 52.286 37.981C47.1694 40.1001 42.7961 43.689 39.7192 48.2936C36.6423 52.8983 35 58.312 35 63.8501C35 69.3882 36.6423 74.8019 39.7192 79.4066C42.7961 84.0112 47.1694 87.6001 52.286 89.7192C57.4026 91.8383 63.0327 92.3925 68.4643 91.3117C73.8959 90.2309 78.885 87.5637 82.8007 83.6474C88.0507 78.3965 91 71.2753 91 63.8501C91 56.4249 88.0507 49.3037 82.8007 44.0528ZM42.3025 54.3746C43.7134 51.2452 45.804 48.4695 48.4224 46.2495C51.0407 44.0295 54.1209 42.4209 57.4389 41.5408C60.757 40.6607 64.2295 40.5312 67.6039 41.1617C70.9783 41.7922 74.1697 43.1668 76.9462 45.1856C70.0734 44.5365 61.4698 48.0492 54.4953 55.011C51.863 57.639 49.6329 60.6411 47.8771 63.9201C45.489 61.0789 43.6037 57.8506 42.3025 54.3746ZM57.7407 86.8546C52.4263 85.4307 47.7937 82.1587 44.6749 77.6262C41.5561 73.0938 40.1554 67.5979 40.7244 62.1255C43.6134 68.4001 50.9062 74.1019 60.4771 76.6474C64.0501 77.6166 67.748 78.0456 71.448 77.9201C70.1905 81.3985 68.353 84.6389 66.0134 87.5037C63.2378 87.7845 60.4342 87.5559 57.7407 86.8292V86.8546ZM75.1644 60.2419C74.2209 56.6528 72.7543 53.2221 70.8116 50.0601C74.4506 49.4123 78.1731 49.3865 81.8207 49.9837C83.4534 52.244 84.657 54.785 85.3716 57.4801C86.7979 62.7953 86.282 68.4449 83.9165 73.4138C81.551 78.3827 77.4911 82.3451 72.4662 84.5892C76.4371 78.9765 77.7098 69.7746 75.1644 60.2419Z" fill="#71717E"/>
</svg>
