<svg width="129" height="129" viewBox="0 0 129 129" fill="none" xmlns="http://www.w3.org/2000/svg">
<g opacity="0.1">
<path opacity="0.1" d="M128.38 125.12V128.12H125.38" stroke="#71717E" stroke-miterlimit="10"/>
<path opacity="0.1" d="M119.62 128.12H7.13989" stroke="#71717E" stroke-miterlimit="10" stroke-dasharray="5.77 5.77"/>
<path opacity="0.1" d="M4.26001 128.12H1.26001V125.12" stroke="#71717E" stroke-miterlimit="10"/>
<path opacity="0.1" d="M1.26001 119.36V6.87988" stroke="#71717E" stroke-miterlimit="10" stroke-dasharray="5.77 5.77"/>
<path opacity="0.1" d="M1.26001 4V1H4.26001" stroke="#71717E" stroke-miterlimit="10"/>
<path opacity="0.1" d="M10.03 1H122.5" stroke="#71717E" stroke-miterlimit="10" stroke-dasharray="5.77 5.77"/>
<path opacity="0.1" d="M125.38 1H128.38V4" stroke="#71717E" stroke-miterlimit="10"/>
<path opacity="0.1" d="M128.38 9.77002V122.24" stroke="#71717E" stroke-miterlimit="10" stroke-dasharray="5.77 5.77"/>
</g>
<path d="M51.3407 37.3972C50.3421 38.0534 49.5106 38.9363 48.913 39.9746C48.3155 41.0129 47.9685 42.1778 47.9001 43.3756V50.1839C47.9685 51.3817 48.3155 52.5466 48.913 53.5849C49.5106 54.6233 50.3421 55.5061 51.3407 56.1623L58.4596 60.3823C60.3477 61.4795 61.9001 60.5793 61.9001 58.3848V35.3153C61.9001 33.1209 60.3477 32.2207 58.4596 33.3179L51.3407 37.3972Z" fill="#71717E"/>
<path d="M50.5991 57.6376C49.5655 57.1199 48.4234 56.8501 47.2651 56.8501C46.1068 56.8501 44.9647 57.1199 43.9311 57.6376L38.2409 60.8661C37.2713 61.4936 36.4639 62.3378 35.8836 63.3307C35.3034 64.3237 34.9665 65.4376 34.9001 66.583V74.4926C34.9001 76.5911 36.4076 77.452 38.2409 76.4028L57.5251 65.3724C59.3585 64.3232 59.3585 62.6148 57.5251 61.5655L50.5991 57.6376Z" fill="#71717E"/>
<path d="M76.4596 37.3972C77.4582 38.0534 78.2897 38.9363 78.8872 39.9746C79.4848 41.0129 79.8318 42.1778 79.9001 43.3756V50.1839C79.8318 51.3817 79.4848 52.5466 78.8872 53.5849C78.2897 54.6233 77.4582 55.5061 76.4596 56.1623L69.3268 60.3823C67.4387 61.4795 65.9001 60.5793 65.9001 58.3848V35.3153C65.9001 33.1209 67.4387 32.2207 69.3268 33.3179L76.4596 37.3972Z" fill="#71717E"/>
<path d="M76.552 57.6376C77.6293 57.1199 78.8196 56.8501 80.0268 56.8501C81.234 56.8501 82.4244 57.1199 83.5017 57.6376L89.4323 60.8661C90.4411 61.4943 91.2805 62.339 91.8828 63.332C92.4851 64.325 92.8336 65.4386 92.9001 66.583V74.4926C92.9001 76.5911 91.3431 77.452 89.4323 76.4028L69.3333 65.3724C67.4224 64.3232 67.4224 62.6148 69.3333 61.5655L76.552 57.6376Z" fill="#71717E"/>
<path d="M47.2059 87.0636C48.2401 87.5807 49.3828 87.8501 50.5417 87.8501C51.7007 87.8501 52.8434 87.5807 53.8776 87.0636L59.5711 83.8261C60.5398 83.1958 61.3455 82.3498 61.9237 81.356C62.5018 80.3621 62.8362 79.2481 62.9001 78.1034V70.2044C62.9001 68.1087 61.4055 67.249 59.5711 68.2968L40.2759 79.3124C38.4415 80.3602 38.4415 82.0663 40.2759 83.1141L47.2059 87.0636Z" fill="#71717E"/>
<path d="M63.9001 78.1099C63.9678 79.2518 64.3167 80.3628 64.9189 81.3536C65.5212 82.3445 66.36 83.1876 67.368 83.8154L73.2986 87.0641C74.3759 87.5809 75.5662 87.8501 76.7735 87.8501C77.9807 87.8501 79.171 87.5809 80.2483 87.0641L87.467 83.1039C89.3778 82.0568 89.3778 80.3518 87.467 79.3047L67.368 68.2965C65.4572 67.2494 63.9001 68.1086 63.9001 70.2028V78.1099Z" fill="#71717E"/>
</svg>
