<svg width="128" height="128" viewBox="0 0 128 128" fill="none" xmlns="http://www.w3.org/2000/svg">
<path d="M39.7765 55.0551C40.3648 55.0383 40.9483 55.1662 41.4756 55.4275L46.5264 58.3486C47.0057 58.6845 47.4061 59.1209 47.6995 59.6274C47.993 60.1339 48.1725 60.6983 48.2255 61.2812V67.1001C48.1709 67.6827 47.9908 68.2465 47.6975 68.7528C47.4042 69.259 47.0046 69.6957 46.5264 70.0328L41.4756 72.9539C40.9471 73.2107 40.3638 73.3346 39.7765 73.3147C39.1927 73.3375 38.6125 73.2135 38.089 72.9539L33.0266 70.0328C32.5484 69.6957 32.1489 69.259 31.8556 68.7528C31.5622 68.2465 31.3821 67.6827 31.3275 67.1001V61.2812C31.3806 60.6983 31.56 60.1339 31.8535 59.6274C32.1469 59.1209 32.5473 58.6845 33.0266 58.3486L38.089 55.4275C38.6114 55.1639 39.1917 55.0359 39.7765 55.0551ZM39.7765 52.7276C38.7831 52.7092 37.8015 52.9457 36.9253 53.4142L31.8629 56.3702C31.0319 56.9131 30.3401 57.6434 29.8428 58.5024C29.3456 59.3615 29.0569 60.3253 29 61.3162V67.135C29.0569 68.126 29.3456 69.0898 29.8428 69.9488C30.3401 70.8078 31.0319 71.5382 31.8629 72.0811L36.9253 75.0021C37.8026 75.4667 38.7841 75.699 39.7765 75.6772C40.7726 75.6985 41.7577 75.4662 42.6394 75.0021L47.6902 72.0811C48.5211 71.5382 49.213 70.8078 49.7102 69.9488C50.2075 69.0898 50.4961 68.126 50.553 67.135V61.3162C50.4961 60.3253 50.2075 59.3615 49.7102 58.5024C49.213 57.6434 48.5211 56.9131 47.6902 56.3702L42.6394 53.4491C41.7586 52.9815 40.7735 52.7453 39.7765 52.7625V52.7276Z" fill="#71717E"/>
<path d="M63.5058 55.0552C64.0903 55.0385 64.67 55.1664 65.1932 55.4276L70.2556 58.3487C70.7318 58.687 71.1291 59.1242 71.4204 59.6304C71.7117 60.1366 71.8899 60.6998 71.9431 61.2814V67.1002C71.8884 67.6814 71.7094 68.2441 71.4183 68.7501C71.1271 69.2561 70.7306 69.6936 70.2556 70.033L65.1932 72.954C64.6688 73.2108 64.0893 73.3347 63.5058 73.3148C62.9185 73.3347 62.3353 73.2109 61.8068 72.954L56.7444 70.033C56.2694 69.6936 55.8727 69.2561 55.5816 68.7501C55.2905 68.2441 55.1116 67.6814 55.0569 67.1002V61.2814C55.1101 60.6998 55.2884 60.1366 55.5797 59.6304C55.8709 59.1242 56.2683 58.687 56.7444 58.3487L61.8068 55.4276C62.3341 55.1663 62.9175 55.0384 63.5058 55.0552ZM63.5058 52.7277C62.5087 52.7105 61.5237 52.9468 60.6429 53.4143L55.5806 56.3703C54.7512 56.9138 54.0611 57.6445 53.5658 58.5036C53.0706 59.3627 52.7839 60.3262 52.7292 61.3163V67.1352C52.7839 68.1253 53.0706 69.0888 53.5658 69.9479C54.0611 70.807 54.7512 71.5377 55.5806 72.0812L60.6429 75.0023C61.5245 75.4663 62.5097 75.6986 63.5058 75.6773C64.4982 75.6992 65.4798 75.4668 66.3571 75.0023L71.4195 72.0812C72.2489 71.5377 72.939 70.807 73.4342 69.9479C73.9295 69.0888 74.216 68.1253 74.2706 67.1352V61.3163C74.216 60.3262 73.9295 59.3627 73.4342 58.5036C72.939 57.6445 72.2489 56.9138 71.4195 56.3703L66.3571 53.4492C65.4809 52.9807 64.4992 52.7443 63.5058 52.7626V52.7277Z" fill="#71717E"/>
<path d="M87.2235 55.0551C87.8118 55.0383 88.3953 55.1662 88.9226 55.4275L93.9734 58.3486C94.4528 58.6845 94.8531 59.1209 95.1466 59.6274C95.44 60.1339 95.6195 60.6983 95.6725 61.2812V67.1001C95.618 67.6827 95.4378 68.2465 95.1445 68.7528C94.8512 69.259 94.4517 69.6957 93.9734 70.0328L88.9226 72.9539C88.3941 73.2107 87.8108 73.3346 87.2235 73.3147C86.6397 73.3375 86.0595 73.2135 85.5361 72.9539L80.4737 70.0328C79.9954 69.6957 79.5959 69.259 79.3026 68.7528C79.0092 68.2465 78.8291 67.6827 78.7746 67.1001V61.2812C78.8276 60.6983 79.0071 60.1339 79.3005 59.6274C79.594 59.1209 79.9943 58.6845 80.4737 58.3486L85.5361 55.4275C86.0585 55.1639 86.6387 55.0359 87.2235 55.0551ZM87.2235 52.7276C86.2301 52.7092 85.2485 52.9457 84.3723 53.4142L79.3099 56.3702C78.479 56.9131 77.7871 57.6434 77.2898 58.5024C76.7926 59.3615 76.5039 60.3253 76.447 61.3162V67.135C76.5039 68.126 76.7926 69.0898 77.2898 69.9488C77.7871 70.8078 78.479 71.5382 79.3099 72.0811L84.3723 75.0021C85.2496 75.4667 86.2311 75.699 87.2235 75.6772C88.2196 75.6985 89.2048 75.4662 90.0864 75.0021L95.1372 72.0811C95.9681 71.5382 96.66 70.8078 97.1573 69.9488C97.6545 69.0898 97.9431 68.126 98 67.135V61.3162C97.9431 60.3253 97.6545 59.3615 97.1573 58.5024C96.66 57.6434 95.9681 56.9131 95.1372 56.3702L90.0864 53.4491C89.2057 52.9815 88.2206 52.7453 87.2235 52.7625V52.7276Z" fill="#71717E"/>
<path d="M51.6353 75.782C52.2276 75.7623 52.8155 75.8903 53.3461 76.1544L58.4085 79.0755C58.8846 79.4138 59.2819 79.851 59.5731 80.3572C59.8644 80.8634 60.0428 81.4266 60.096 82.0082V87.8271C60.0398 88.4079 59.8602 88.97 59.5692 89.4758C59.2781 89.9816 58.8824 90.4193 58.4085 90.7597L53.3461 93.7041C52.8132 93.9419 52.2363 94.0648 51.6528 94.0648C51.0693 94.0648 50.4923 93.9419 49.9595 93.7041L44.8971 90.783C44.4232 90.4426 44.0274 90.0048 43.7364 89.499C43.4454 88.9932 43.2658 88.4311 43.2096 87.8503V82.0315C43.2628 81.4499 43.4412 80.8867 43.7324 80.3805C44.0237 79.8743 44.421 79.4371 44.8971 79.0988L49.9595 76.1777C50.4827 75.9165 51.0624 75.7885 51.647 75.8053L51.6353 75.782ZM51.647 73.4778C50.6545 73.4559 49.673 73.6883 48.7957 74.1528L43.7333 77.0738C42.9037 77.6198 42.2136 78.3528 41.7184 79.2137C41.2233 80.0747 40.9368 81.0398 40.8821 82.0315V87.8503C40.9377 88.8402 41.2246 89.8033 41.7197 90.6623C42.2149 91.5212 42.9046 92.2521 43.7333 92.7963L48.7957 95.7174C49.673 96.1819 50.6545 96.4143 51.647 96.3924C52.643 96.4137 53.6282 96.1814 54.5098 95.7174L59.5723 92.7963C60.401 92.2521 61.0907 91.5212 61.5858 90.6623C62.081 89.8033 62.3679 88.8402 62.4235 87.8503V82.0315C62.3688 81.0398 62.0823 80.0747 61.5872 79.2137C61.092 78.3528 60.4019 77.6198 59.5723 77.0738L54.5098 74.1295C53.6282 73.6655 52.643 73.4332 51.647 73.4545V73.4778Z" fill="#71717E"/>
<path d="M75.3646 75.7818C75.9495 75.7626 76.5297 75.8907 77.0521 76.1543L82.1145 79.0753C82.5939 79.4113 82.9942 79.8477 83.2877 80.3542C83.5811 80.8607 83.7606 81.4251 83.8136 82.0081V87.8269C83.7576 88.4091 83.5768 88.9723 83.2836 89.4784C82.9904 89.9844 82.5917 90.4214 82.1145 90.7596L77.0521 93.6806C76.5263 93.9335 75.9478 94.0571 75.3646 94.0414C74.7779 94.0555 74.196 93.9319 73.6656 93.6806L68.6148 90.7596C68.1376 90.4214 67.7389 89.9844 67.4457 89.4784C67.1525 88.9723 66.9717 88.4091 66.9157 87.8269V82.0081C66.9687 81.4251 67.1482 80.8607 67.4416 80.3542C67.7351 79.8477 68.1354 79.4113 68.6148 79.0753L73.6656 76.1543C74.1929 75.8929 74.7763 75.7651 75.3646 75.7818ZM75.3646 73.4543C74.3686 73.433 73.3834 73.6653 72.5018 74.1293L67.451 77.0504C66.6198 77.5958 65.928 78.3283 65.4308 79.1892C64.9337 80.0501 64.6451 81.0155 64.5881 82.0081V87.8269C64.6459 88.8176 64.935 89.781 65.4322 90.6399C65.9293 91.4988 66.6207 92.2293 67.451 92.7729L72.5018 95.6939C73.3834 96.158 74.3686 96.3903 75.3646 96.369C76.3571 96.3908 77.3386 96.1585 78.2159 95.6939L83.2783 92.7729C84.1086 92.2293 84.8 91.4988 85.2972 90.6399C85.7943 89.781 86.0834 88.8176 86.1412 87.8269V82.0081C86.0842 81.0155 85.7956 80.0501 85.2985 79.1892C84.8013 78.3283 84.1095 77.5958 83.2783 77.0504L78.2159 74.1293C77.3386 73.6648 76.3571 73.4324 75.3646 73.4543Z" fill="#71717E"/>
<path d="M51.6355 34.3284C52.2239 34.3107 52.8076 34.4386 53.3346 34.7008L58.397 37.6219C58.8731 37.9602 59.2704 38.3974 59.5617 38.9036C59.8529 39.4098 60.0313 39.973 60.0845 40.5546V46.3734C60.0298 46.9546 59.8508 47.5173 59.5596 48.0233C59.2685 48.5293 58.872 48.9668 58.397 49.3061L53.3462 52.2505C52.8134 52.4883 52.2364 52.6112 51.6529 52.6112C51.0694 52.6112 50.4925 52.4883 49.9597 52.2505L44.8856 49.3876C44.4106 49.0483 44.0141 48.6108 43.723 48.1048C43.4318 47.5988 43.2528 47.0361 43.1981 46.4549V40.636C43.2513 40.0544 43.4297 39.4913 43.7209 38.9851C44.0122 38.4789 44.4095 38.0416 44.8856 37.7034L49.948 34.7823C50.4712 34.5211 51.0509 34.3931 51.6355 34.4099V34.3284ZM51.6355 32.0824C50.642 32.064 49.6605 32.3004 48.7843 32.7689L43.7218 35.69C42.8924 36.2335 42.2023 36.9643 41.7071 37.8234C41.2118 38.6825 40.9253 39.6459 40.8706 40.636V46.4549C40.9253 47.445 41.2118 48.4085 41.7071 49.2676C42.2023 50.1267 42.8924 50.8574 43.7218 51.4009L48.7843 54.322C49.6615 54.7865 50.6431 55.0189 51.6355 54.997C52.6316 55.0183 53.6167 54.786 54.4984 54.322L59.5608 51.4009C60.3902 50.8574 61.0803 50.1267 61.5756 49.2676C62.0708 48.4085 62.3573 47.445 62.412 46.4549V40.636C62.3573 39.6459 62.0708 38.6825 61.5756 37.8234C61.0803 36.9643 60.3902 36.2335 59.5608 35.69L54.51 32.6875C53.6292 32.22 52.6442 31.9837 51.6471 32.0009L51.6355 32.0824Z" fill="#71717E"/>
<path d="M75.3646 34.3284C75.9495 34.3091 76.5297 34.4372 77.0521 34.7008L82.1145 37.6218C82.5939 37.9578 82.9942 38.3942 83.2877 38.9007C83.5811 39.4072 83.7606 39.9716 83.8136 40.5545V46.3734C83.7591 46.9559 83.5789 47.5198 83.2856 48.026C82.9923 48.5323 82.5928 48.969 82.1145 49.3061L77.0521 52.2272C76.5287 52.4867 75.9485 52.6108 75.3646 52.5879C74.7774 52.6078 74.1941 52.484 73.6656 52.2272L68.6148 49.3876C68.1365 49.0505 67.737 48.6138 67.4437 48.1075C67.1504 47.6012 66.9702 47.0374 66.9157 46.4548V40.636C66.9687 40.053 67.1482 39.4887 67.4416 38.9822C67.7351 38.4757 68.1354 38.0393 68.6148 37.7033L73.6656 34.7822C74.1929 34.5209 74.7763 34.3931 75.3646 34.4098V34.3284ZM75.3646 32.0823C74.3676 32.0651 73.3825 32.3013 72.5018 32.7689L67.451 35.6899C66.6201 36.2329 65.9282 36.9633 65.431 37.8223C64.9337 38.6813 64.645 39.645 64.5881 40.636V46.4548C64.645 47.4458 64.9337 48.4095 65.431 49.2686C65.9282 50.1276 66.6201 50.8579 67.451 51.4009L72.5018 54.3219C73.3834 54.786 74.3686 55.0183 75.3646 54.9969C76.3571 55.0188 77.3386 54.7865 78.2159 54.3219L83.2783 51.4009C84.1092 50.8579 84.8011 50.1276 85.2984 49.2686C85.7956 48.4095 86.0843 47.4458 86.1412 46.4548V40.636C86.0843 39.645 85.7956 38.6813 85.2984 37.8223C84.8011 36.9633 84.1092 36.2329 83.2783 35.6899L78.2159 32.7689C77.3397 32.3003 76.3581 32.064 75.3646 32.0823Z" fill="#71717E"/>
</svg>
