<svg width="129" height="129" viewBox="0 0 129 129" fill="none" xmlns="http://www.w3.org/2000/svg">
<g opacity="0.1">
<path opacity="0.1" d="M127.64 125.12V128.12H124.64" stroke="#71717E" stroke-miterlimit="10"/>
<path opacity="0.1" d="M118.87 128.12H6.3999" stroke="#71717E" stroke-miterlimit="10" stroke-dasharray="5.77 5.77"/>
<path opacity="0.1" d="M3.52002 128.12H0.52002V125.12" stroke="#71717E" stroke-miterlimit="10"/>
<path opacity="0.1" d="M0.52002 119.35V6.88" stroke="#71717E" stroke-miterlimit="10" stroke-dasharray="5.77 5.77"/>
<path opacity="0.1" d="M0.52002 4V1H3.52002" stroke="#71717E" stroke-miterlimit="10"/>
<path opacity="0.1" d="M9.28003 1H121.76" stroke="#71717E" stroke-miterlimit="10" stroke-dasharray="5.77 5.77"/>
<path opacity="0.1" d="M124.64 1H127.64V4" stroke="#71717E" stroke-miterlimit="10"/>
<path opacity="0.1" d="M127.64 9.76001V122.24" stroke="#71717E" stroke-miterlimit="10" stroke-dasharray="5.77 5.77"/>
</g>
<path d="M63.9701 45.57L71.7801 50.08L75.7401 47.8L63.9701 41L44.3101 52.36L48.2501 54.64L63.9701 45.57Z" fill="#71717E"/>
<path d="M79.6802 50.08L63.9702 59.15L56.1602 54.64L52.2102 56.92L63.9702 63.71L83.6402 52.36L79.6802 50.08Z" fill="#71717E"/>
<path d="M47.47 65.3401L43.52 63.0601V76.6401L63.18 88.0001V83.4401L47.47 74.3601V65.3401Z" fill="#71717E"/>
<path d="M43.52 58.4999L59.23 67.5699V76.5899L63.18 78.8799V65.2899L43.52 53.9399V58.4999Z" fill="#71717E"/>
<path d="M76.5303 63.06V58.5L64.7603 65.29V88L68.7103 85.72V67.57L76.5303 63.06Z" fill="#71717E"/>
<path d="M80.4702 56.2199V74.3599L72.6602 78.8799V83.4399L84.4302 76.6399V53.9399L80.4702 56.2199Z" fill="#71717E"/>
</svg>
