<svg width="129" height="129" viewBox="0 0 129 129" fill="none" xmlns="http://www.w3.org/2000/svg">
<g opacity="0.1">
<path opacity="0.1" d="M127.78 125.12V128.12H124.78" stroke="#71717E" stroke-miterlimit="10"/>
<path opacity="0.1" d="M119.01 128.12H6.53979" stroke="#71717E" stroke-miterlimit="10" stroke-dasharray="5.77 5.77"/>
<path opacity="0.1" d="M3.6499 128.12H0.649902V125.12" stroke="#71717E" stroke-miterlimit="10"/>
<path opacity="0.1" d="M0.649902 119.35V6.88" stroke="#71717E" stroke-miterlimit="10" stroke-dasharray="5.77 5.77"/>
<path opacity="0.1" d="M0.649902 4V1H3.6499" stroke="#71717E" stroke-miterlimit="10"/>
<path opacity="0.1" d="M9.41992 1H121.89" stroke="#71717E" stroke-miterlimit="10" stroke-dasharray="5.77 5.77"/>
<path opacity="0.1" d="M124.78 1H127.78V4" stroke="#71717E" stroke-miterlimit="10"/>
<path opacity="0.1" d="M127.78 9.76001V122.24" stroke="#71717E" stroke-miterlimit="10" stroke-dasharray="5.77 5.77"/>
</g>
<path d="M65.1604 49.6404C67.1227 49.6422 69.0626 50.0683 70.8535 50.8907C72.6444 51.7132 74.2462 52.9136 75.5544 54.4136L79.6499 50.6269C77.0284 47.637 73.5891 45.5269 69.7807 44.5721C65.9724 43.6172 61.9719 43.8619 58.3011 45.2742C54.6304 46.6865 51.4599 49.2008 49.2035 52.489C46.947 55.7773 45.7094 59.6867 45.652 63.7073C45.5946 67.7278 46.7202 71.6728 48.8818 75.0273C51.0435 78.3819 54.1408 80.9903 57.7697 82.5122C61.3985 84.034 65.3904 84.3987 69.2244 83.5586C73.0583 82.7185 76.5564 80.7126 79.2621 77.8027L75.2596 73.9045C73.6652 75.6146 71.6825 76.8928 69.4888 77.6249C67.2951 78.357 64.9586 78.5202 62.6884 78.0998C60.4181 77.6795 58.2849 76.6888 56.4792 75.2162C54.6735 73.7436 53.2517 71.8351 52.341 69.6612C51.4302 67.4873 51.0588 65.1158 51.26 62.7588C51.4613 60.4017 52.2288 58.1325 53.494 56.1541C54.7593 54.1756 56.4828 52.5495 58.5106 51.4212C60.5383 50.2928 62.807 49.6974 65.114 49.6881L65.1604 49.6404Z" fill="#71717E"/>
<path d="M46.6499 44.9093L42.6093 41C39.4528 44.0152 36.9481 47.5992 35.2389 51.5463C33.5298 55.4933 32.6499 59.7256 32.6499 64C32.6499 68.2744 33.5298 72.5067 35.2389 76.4537C36.9481 80.4008 39.4528 83.9848 42.6093 87L46.6499 83.0907C44.0182 80.5944 41.9288 77.6216 40.5027 74.3445C39.0767 71.0675 38.3424 67.5514 38.3424 64C38.3424 60.4486 39.0767 56.9325 40.5027 53.6555C41.9288 50.3784 44.0182 47.4056 46.6499 44.9093Z" fill="#71717E"/>
<path d="M84.6499 37.4753C79.1406 33.2602 72.4834 30.9914 65.6499 31V36.6759C71.2884 36.6705 76.7825 38.5351 81.3376 42L84.6499 37.4753Z" fill="#71717E"/>
<path d="M65.6499 91.4006V97C72.0421 97.0072 78.2976 95.1435 83.6499 91.6372L80.5058 87C76.0829 89.879 70.9221 91.4078 65.6499 91.4006Z" fill="#71717E"/>
<path d="M65.6499 84.4849C61.3197 84.482 57.0949 83.187 53.5475 80.7751C50 78.3632 47.3012 74.9508 45.8162 71L40.6499 73.3303C42.5954 78.2367 46.0254 82.4556 50.4881 85.4312C54.9508 88.4069 60.2368 89.9997 65.6499 90V84.4849Z" fill="#71717E"/>
<path d="M45.1669 63C45.5023 57.7395 47.8057 52.8049 51.6096 49.1974C55.4135 45.59 60.4331 43.5798 65.6499 43.5747V38C58.9692 37.9998 52.5442 40.595 47.7045 45.2485C42.8648 49.9021 39.9809 56.2577 39.6499 63H45.1669Z" fill="#71717E"/>
</svg>
