<svg width="510" height="512" viewBox="0 0 510 512" fill="none" xmlns="http://www.w3.org/2000/svg">
<path d="M474.067 26.2693C478.783 22.9402 485.303 24.0624 488.63 28.7754C491.956 33.4884 490.831 40.0081 486.114 43.3372C481.398 46.6659 474.877 45.5435 471.551 40.8305C468.224 36.1175 469.351 29.5979 474.067 26.2693Z" fill="#4D41CB"/>
<path d="M383.35 49.487C401.769 36.4859 427.234 40.869 440.227 59.2769C453.219 77.684 448.82 103.146 430.401 116.147C411.982 129.147 386.518 124.764 373.525 106.357C360.532 87.9494 364.931 62.4875 383.35 49.487Z" fill="#4D41CB"/>
<path fill-rule="evenodd" clip-rule="evenodd" d="M350.964 -9.24158L294.787 52.4135L355.521 27.0802L310.125 87.9303L347.697 59.8147L350.461 63.507L287.371 110.718L341.756 37.8185L277.378 64.6717L347.554 -12.3478L350.964 -9.24158Z" fill="#4D41CB"/>
<path fill-rule="evenodd" clip-rule="evenodd" d="M235.589 516.939L190.934 472.281L146.274 516.943L190.93 561.6L235.589 516.939Z" fill="#4D41CB"/>
<path d="M400 428.222L460.596 510.798L500.008 489.74L400 428.222Z" fill="#4D41CB"/>
<path d="M516.116 320.042C509.133 319.028 505.595 320.868 501.114 323.194C496.119 325.789 490.46 328.732 480.532 327.291C470.607 325.848 466.017 321.416 461.967 317.506C458.335 313.999 455.466 311.23 448.483 310.215C441.5 309.199 437.962 311.039 433.482 313.368C428.488 315.963 422.827 318.906 412.902 317.463C402.979 316.021 398.389 311.59 394.339 307.68C390.706 304.173 387.838 301.403 380.856 300.389L382.181 291.26C392.106 292.702 396.696 297.133 400.746 301.044C404.378 304.55 407.247 307.32 414.228 308.335C421.21 309.35 424.749 307.511 429.228 305.182C434.223 302.586 439.883 299.643 449.808 301.086C459.733 302.528 464.324 306.96 468.373 310.87C472.006 314.377 474.875 317.147 481.858 318.161C488.843 319.176 492.381 317.337 496.861 315.009C501.854 312.413 507.515 309.47 517.443 310.913L516.116 320.042Z" fill="#4D41CB"/>
</svg>
