<svg width="300" height="512" viewBox="0 0 300 512" fill="none" xmlns="http://www.w3.org/2000/svg">
<path fill-rule="evenodd" clip-rule="evenodd" d="M130.59 547.99L187.755 487.251L126.62 511.6L172.993 451.491L134.972 478.996L132.268 475.259L196.112 429.074L140.557 501.085L205.36 475.276L133.949 551.151L130.59 547.99Z" fill="#887DFF"/>
<path fill-rule="evenodd" clip-rule="evenodd" d="M57.2303 395.924L56.9533 215.393L-160.281 276.541L-160.004 457.073L57.2303 395.924Z" fill="#4D41CB"/>
<mask id="mask0_8450_7534" style="mask-type:luminance" maskUnits="userSpaceOnUse" x="-161" y="215" width="219" height="243">
<path fill-rule="evenodd" clip-rule="evenodd" d="M57.2303 395.924L56.9533 215.393L-160.281 276.541L-160.004 457.073L57.2303 395.924Z" fill="white"/>
</mask>
<g mask="url(#mask0_8450_7534)">
<path fill-rule="evenodd" clip-rule="evenodd" d="M-2.57944 309.731C-0.789078 311.476 1.22004 312.856 3.35454 313.871C3.88615 314.124 4.42582 314.354 4.97168 314.562C5.30278 314.687 5.63586 314.805 5.97142 314.914C5.73249 314.703 5.49768 314.484 5.26673 314.259C4.83522 313.838 4.42709 313.403 4.04209 312.954C-2.46078 305.372 -2.29029 294.032 4.71296 286.849C11.7162 279.666 23.0485 279.208 30.7925 285.516C31.251 285.89 31.6967 286.287 32.1282 286.707C32.3591 286.932 32.5835 287.162 32.8011 287.395C32.6834 287.062 32.5573 286.732 32.4232 286.405C32.2019 285.864 31.958 285.331 31.6918 284.806C30.6233 282.697 29.1928 280.724 27.4025 278.979C18.7817 270.574 5.08182 270.645 -3.19754 279.137C-11.4769 287.629 -11.2002 301.326 -2.57944 309.731ZM-2.38305 279.93C-10.2305 287.979 -9.96822 300.962 -1.79719 308.928C-0.721394 309.977 0.436979 310.886 1.65639 311.656C-3.61557 303.741 -2.91152 293.04 3.89911 286.054C10.7097 279.069 21.3896 278.093 29.4358 283.163C28.6348 281.964 27.6966 280.829 26.6208 279.78C18.4498 271.813 5.46442 271.881 -2.38305 279.93Z" fill="#2D2763"/>
<path fill-rule="evenodd" clip-rule="evenodd" d="M52.7103 238.753C50.5512 238.294 48.8371 236.623 48.3231 234.476C47.7086 231.91 45.6597 229.912 43.0793 229.363L42.8684 230.437C45.0275 230.896 46.7416 232.567 47.2556 234.714C47.8698 237.28 49.9187 239.277 52.4994 239.826C54.6585 240.286 56.3726 241.957 56.8866 244.104C57.5008 246.669 59.55 248.667 62.1304 249.216C64.2895 249.675 66.0036 251.346 66.5176 253.493L67.5851 253.255C66.9709 250.69 64.9217 248.692 62.3413 248.143C60.1822 247.683 58.4681 246.012 57.9541 243.865C57.3399 241.3 55.2907 239.302 52.7103 238.753ZM66.7861 243.583C64.627 243.124 62.9129 241.453 62.3989 239.306C61.785 236.74 59.7358 234.742 57.1551 234.194C54.996 233.734 53.2819 232.063 52.768 229.916C52.1537 227.35 50.1048 225.353 47.5241 224.804L47.3133 225.877C49.4723 226.337 51.1865 228.008 51.7004 230.155C52.3146 232.72 54.3636 234.718 56.9443 235.267C59.1033 235.726 60.8174 237.397 61.3314 239.544C61.9456 242.11 63.9948 244.108 66.5752 244.657C68.7343 245.116 70.4484 246.787 70.9624 248.934L72.0299 248.696C71.416 246.13 69.3668 244.132 66.7861 243.583Z" fill="#2D2763"/>
<path fill-rule="evenodd" clip-rule="evenodd" d="M39.4927 376.874C41.6515 377.333 43.3658 379.004 43.8798 381.151C44.494 383.717 46.5429 385.714 49.1236 386.263C51.2824 386.722 52.9967 388.394 53.5107 390.541C54.1249 393.106 56.1738 395.104 58.7545 395.653L58.9654 394.58C56.8063 394.12 55.0919 392.449 54.5782 390.303C53.9638 387.737 51.9149 385.739 49.3345 385.19C47.1754 384.731 45.461 383.059 44.9473 380.913C44.3329 378.347 42.284 376.35 39.7036 375.801C37.5445 375.341 35.8301 373.67 35.3164 371.523L34.2486 371.761C34.8631 374.327 36.912 376.325 39.4927 376.874ZM53.5684 381.704C55.7272 382.163 57.4416 383.835 57.9556 385.981C58.5698 388.547 60.6187 390.544 63.1993 391.094L63.4104 390.02C61.2514 389.561 59.537 387.889 59.0233 385.743C58.4089 383.177 56.36 381.18 53.7796 380.631C51.6205 380.171 49.9062 378.5 49.3924 376.353C48.778 373.788 46.7291 371.79 44.1487 371.241C41.9896 370.782 40.2753 369.11 39.7616 366.964L38.6935 367.202C39.308 369.768 41.3569 371.765 43.9376 372.315C46.0963 372.774 47.8107 374.445 48.3247 376.592C48.9389 379.157 50.9878 381.155 53.5684 381.704Z" fill="#2D2763"/>
<path fill-rule="evenodd" clip-rule="evenodd" d="M-22.7627 430.335L3.18465 455.632L28.4818 429.685L2.53454 404.388L-22.7627 430.335ZM-21.1634 430.315L-15.8256 424.84L-10.3504 430.178L-15.6882 435.653L-21.1634 430.315ZM-9.54122 430.967L-14.879 436.442L-9.4041 441.779L-4.06631 436.304L-9.54122 430.967ZM-8.59604 442.57L-3.25826 437.095L2.21664 442.433L-3.12114 447.908L-8.59604 442.57ZM3.02759 443.221L-2.31021 448.696L3.16498 454.034L8.50278 448.559L3.02759 443.221ZM9.29165 447.75L3.81649 442.412L9.15453 436.936L14.6297 442.274L9.29165 447.75ZM9.94315 436.127L15.4183 441.465L20.7561 435.99L15.2809 430.652L9.94315 436.127ZM21.5452 435.181L16.07 429.843L21.4078 424.368L26.883 429.706L21.5452 435.181ZM15.2604 429.053L20.5982 423.578L15.1233 418.241L9.78555 423.716L15.2604 429.053ZM14.3139 417.452L8.97609 422.927L3.50118 417.589L8.83897 412.114L14.3139 417.452ZM2.69189 416.799L8.02969 411.324L2.5545 405.986L-2.7833 411.461L2.69189 416.799ZM-3.57221 412.271L1.90298 417.609L-3.43482 423.084L-8.91001 417.746L-3.57221 412.271ZM-4.22346 423.894L-9.69865 418.556L-15.0367 424.031L-9.56153 429.369L-4.22346 423.894ZM-8.75217 430.158L-3.4141 424.683L2.06082 430.021L-3.27724 435.496L-8.75217 430.158ZM2.87017 430.809L-2.46787 436.284L3.00702 441.622L8.34506 436.147L2.87017 430.809ZM9.13374 435.338L3.65884 430L8.99662 424.525L14.4715 429.863L9.13374 435.338ZM2.84935 429.21L8.18715 423.736L2.71223 418.398L-2.62558 423.873L2.84935 429.21Z" fill="#2D2763"/>
</g>
<path fill-rule="evenodd" clip-rule="evenodd" d="M242.807 555.263L207.381 537.134L207.906 536.107L242.306 553.712L298.032 444.819L299.058 445.345L242.807 555.263Z" fill="#887DFF"/>
<path fill-rule="evenodd" clip-rule="evenodd" d="M111.505 166.024L-23.8863 115.675L-24.4179 117.105L110.974 167.454L111.505 166.024Z" fill="#5C53F3"/>
<path fill-rule="evenodd" clip-rule="evenodd" d="M127.731 26.1956C112.207 18.8631 97.3523 14.3727 97.0822 14.2928L97.9931 11.242C99.0701 11.564 112.983 15.772 127.94 22.7274C129.053 6.72736 131.953 -6.75754 132.18 -7.79036L135.288 -7.11002C135.231 -6.85313 132.139 7.53535 131.083 24.2238C143.492 30.2736 156.053 38.14 162.142 47.1846C166.553 53.7368 167.118 60.9465 163.689 66.9651C160.39 72.7568 153.842 76.402 147.394 76.0297C143.533 75.8095 136.416 73.9374 132.137 63.9019C127.751 53.6211 127.058 39.3229 127.731 26.1956ZM135.062 62.6541C137.735 68.9211 142.18 72.5446 147.575 72.8539C150.207 73.0051 152.863 72.3322 155.201 71.0267C157.543 69.7185 159.564 67.7766 160.923 65.3895C162.572 62.4935 164.582 56.5078 159.501 48.961C154 40.7895 142.523 33.4939 130.893 27.7261C130.345 40.1192 131.073 53.3005 135.062 62.6541Z" fill="#887DFF"/>
</svg>
